# xmcd
# 
# Track frame offsets:
#     150
#     13197
#     26163
#     38461
#     50613
#     63495
#     74510
#     88480
#     99838
#     112995
#     123282
#     135578
# 
# Disc length: 1963
# 
# Revision: 2
# Processed by: cddbd v1.5.2PL0 Copyright (c) Steve Scherf et al.
# Submitted via: fre:ac v1.0.27
# 
DISCID=a207a90c
DTITLE=Lacy J. Daltom - Here's to Hank
DYEAR=2011
DGENRE=Country
TTITLE0=Hey Good Lookin'
TTITLE1=Lovesick Blues
TTITLE2=My Bucket's Got a Hole in It
TTITLE3=Long Gone Lonesome Blues
TTITLE4=Your Cheating Heart
TTITLE5=(I Heard That) Lonesome Whistle
TTITLE6=Jambalaya (On the Bayou)
TTITLE7=Why Don't You Love Me
TTITLE8=Cold Cold Heart
TTITLE9=Honky Tonk Blues
TTITLE10=Take These Chains From My Heart
TTITLE11=You Win Again
EXTD=
EXTT0=
EXTT1=
EXTT2=
EXTT3=
EXTT4=
EXTT5=
EXTT6=
EXTT7=
EXTT8=
EXTT9=
EXTT10=
EXTT11=
PLAYORDER=
